<svg xmlns="http://www.w3.org/2000/svg" viewBox="0 0 40 44" fill="none">
  <!-- Shield background -->
  <path d="M20 2L3 9v14c0 10.5 7.2 19.8 17 22 9.8-2.2 17-11.5 17-22V9L20 2z" fill="#2b6de9"/>
  <!-- Inner shield lighter -->
  <path d="M20 5.5L6 11.5v11.8c0 9 6.2 17 14 19.2 7.8-2.2 14-10.2 14-19.2V11.5L20 5.5z" fill="#1a56c4"/>
  <!-- Mountain peaks -->
  <path d="M9 28l5-8 4 5 3-4.5 5 7.5H9z" fill="#fff" opacity="0.9"/>
  <!-- Snow caps -->
  <path d="M14 20l2 3-2 0.5z" fill="#fff"/>
  <path d="M17 23.5l1.5-3.5 2 3z" fill="#fff" opacity="0.7"/>
  <!-- Star/compass accent -->
  <circle cx="20" cy="13" r="2.5" fill="#fff" opacity="0.95"/>
  <path d="M20 9.5v1.5M20 15v1.5M16.5 13h1.5M22 13h1.5" stroke="#fff" stroke-width="1" stroke-linecap="round" opacity="0.7"/>
</svg>
