<svg xmlns="http://www.w3.org/2000/svg" viewBox="0 0 1200 630" width="1200" height="630">
  <defs>
    <linearGradient id="sky" x1="0" y1="0" x2="0" y2="1">
      <stop offset="0" stop-color="#0c2138"/>
      <stop offset="0.55" stop-color="#091a2c"/>
      <stop offset="1" stop-color="#061320"/>
    </linearGradient>
    <radialGradient id="vign" cx="0.5" cy="0.42" r="0.75">
      <stop offset="0.55" stop-color="#000000" stop-opacity="0"/>
      <stop offset="1" stop-color="#000000" stop-opacity="0.35"/>
    </radialGradient>
  </defs>
  <rect width="1200" height="630" fill="url(#sky)"/>
  <g>
    <path d="M 0.0,70.0 L 20.0,72.7 L 40.0,75.3 L 60.0,77.8 L 80.0,80.1 L 100.0,82.3 L 120.0,84.2 L 140.0,85.8 L 160.0,87.2 L 180.0,88.2 L 200.0,88.9 L 220.0,89.3 L 240.0,89.2 L 260.0,88.9 L 280.0,88.2 L 300.0,87.2 L 320.0,85.9 L 340.0,84.3 L 360.0,82.6 L 380.0,80.6 L 400.0,78.5 L 420.0,76.4 L 440.0,74.1 L 460.0,71.9 L 480.0,69.8 L 500.0,67.8 L 520.0,65.9 L 540.0,64.3 L 560.0,62.8 L 580.0,61.7 L 600.0,60.8 L 620.0,60.2 L 640.0,60.0 L 660.0,60.1 L 680.0,60.5 L 700.0,61.2 L 720.0,62.2 L 740.0,63.5 L 760.0,65.0 L 780.0,66.8 L 800.0,68.7 L 820.0,70.7 L 840.0,72.8 L 860.0,75.0 L 880.0,77.1 L 900.0,79.2 L 920.0,81.1 L 940.0,82.9 L 960.0,84.5 L 980.0,85.8 L 1000.0,86.9 L 1020.0,87.6 L 1040.0,88.0 L 1060.0,88.1 L 1080.0,87.8 L 1100.0,87.2 L 1120.0,86.2 L 1140.0,85.0 L 1160.0,83.4 L 1180.0,81.5 L 1200.0,79.4" fill="none" stroke="#5aaddc" stroke-width="1.4" opacity="0.075"/>
    <path d="M 0.0,130.7 L 20.0,133.5 L 40.0,135.7 L 60.0,137.2 L 80.0,138.0 L 100.0,138.1 L 120.0,137.4 L 140.0,136.1 L 160.0,134.0 L 180.0,131.3 L 200.0,128.1 L 220.0,124.4 L 240.0,120.3 L 260.0,116.0 L 280.0,111.5 L 300.0,107.0 L 320.0,102.7 L 340.0,98.5 L 360.0,94.7 L 380.0,91.3 L 400.0,88.5 L 420.0,86.2 L 440.0,84.6 L 460.0,83.7 L 480.0,83.5 L 500.0,84.0 L 520.0,85.2 L 540.0,87.0 L 560.0,89.4 L 580.0,92.4 L 600.0,95.8 L 620.0,99.5 L 640.0,103.4 L 660.0,107.4 L 680.0,111.4 L 700.0,115.2 L 720.0,118.8 L 740.0,122.0 L 760.0,124.8 L 780.0,127.0 L 800.0,128.6 L 820.0,129.5 L 840.0,129.7 L 860.0,129.2 L 880.0,128.0 L 900.0,126.1 L 920.0,123.6 L 940.0,120.5 L 960.0,116.9 L 980.0,113.0 L 1000.0,108.7 L 1020.0,104.2 L 1040.0,99.7 L 1060.0,95.3 L 1080.0,91.0 L 1100.0,87.0 L 1120.0,83.4 L 1140.0,80.3 L 1160.0,77.8 L 1180.0,76.0 L 1200.0,74.8" fill="none" stroke="#5aaddc" stroke-width="1.4" opacity="0.050"/>
    <path d="M 0.0,158.4 L 20.0,157.8 L 40.0,156.9 L 60.0,155.6 L 80.0,153.9 L 100.0,151.9 L 120.0,149.7 L 140.0,147.3 L 160.0,144.7 L 180.0,142.1 L 200.0,139.5 L 220.0,136.9 L 240.0,134.5 L 260.0,132.3 L 280.0,130.4 L 300.0,128.8 L 320.0,127.5 L 340.0,126.6 L 360.0,126.1 L 380.0,126.0 L 400.0,126.3 L 420.0,126.9 L 440.0,128.0 L 460.0,129.4 L 480.0,131.0 L 500.0,132.9 L 520.0,134.9 L 540.0,137.0 L 560.0,139.1 L 580.0,141.2 L 600.0,143.2 L 620.0,145.1 L 640.0,146.7 L 660.0,148.0 L 680.0,149.0 L 700.0,149.7 L 720.0,150.0 L 740.0,149.9 L 760.0,149.4 L 780.0,148.6 L 800.0,147.4 L 820.0,145.9 L 840.0,144.2 L 860.0,142.2 L 880.0,140.1 L 900.0,138.0 L 920.0,135.8 L 940.0,133.6 L 960.0,131.6 L 980.0,129.8 L 1000.0,128.2 L 1020.0,126.9 L 1040.0,125.9 L 1060.0,125.3 L 1080.0,125.1 L 1100.0,125.3 L 1120.0,125.9 L 1140.0,126.9 L 1160.0,128.3 L 1180.0,130.0 L 1200.0,132.0" fill="none" stroke="#5aaddc" stroke-width="1.4" opacity="0.050"/>
    <path d="M 0.0,178.5 L 20.0,177.4 L 40.0,176.4 L 60.0,175.2 L 80.0,174.0 L 100.0,172.8 L 120.0,171.7 L 140.0,170.6 L 160.0,169.5 L 180.0,168.6 L 200.0,167.8 L 220.0,167.1 L 240.0,166.6 L 260.0,166.2 L 280.0,166.1 L 300.0,166.1 L 320.0,166.3 L 340.0,166.7 L 360.0,167.2 L 380.0,167.9 L 400.0,168.8 L 420.0,169.8 L 440.0,170.8 L 460.0,172.0 L 480.0,173.2 L 500.0,174.5 L 520.0,175.7 L 540.0,177.0 L 560.0,178.2 L 580.0,179.3 L 600.0,180.3 L 620.0,181.2 L 640.0,181.9 L 660.0,182.5 L 680.0,183.0 L 700.0,183.3 L 720.0,183.4 L 740.0,183.4 L 760.0,183.3 L 780.0,182.9 L 800.0,182.5 L 820.0,182.0 L 840.0,181.3 L 860.0,180.6 L 880.0,179.9 L 900.0,179.2 L 920.0,178.4 L 940.0,177.7 L 960.0,177.1 L 980.0,176.5 L 1000.0,176.0 L 1020.0,175.7 L 1040.0,175.5 L 1060.0,175.4 L 1080.0,175.5 L 1100.0,175.8 L 1120.0,176.2 L 1140.0,176.8 L 1160.0,177.5 L 1180.0,178.3 L 1200.0,179.3" fill="none" stroke="#5aaddc" stroke-width="1.4" opacity="0.075"/>
    <path d="M 0.0,209.3 L 20.0,206.7 L 40.0,204.2 L 60.0,201.8 L 80.0,199.6 L 100.0,197.7 L 120.0,196.0 L 140.0,194.6 L 160.0,193.5 L 180.0,192.8 L 200.0,192.4 L 220.0,192.5 L 240.0,192.9 L 260.0,193.7 L 280.0,194.9 L 300.0,196.4 L 320.0,198.3 L 340.0,200.4 L 360.0,202.9 L 380.0,205.5 L 400.0,208.4 L 420.0,211.4 L 440.0,214.5 L 460.0,217.6 L 480.0,220.7 L 500.0,223.7 L 520.0,226.7 L 540.0,229.4 L 560.0,231.9 L 580.0,234.2 L 600.0,236.2 L 620.0,237.9 L 640.0,239.2 L 660.0,240.2 L 680.0,240.7 L 700.0,240.9 L 720.0,240.7 L 740.0,240.1 L 760.0,239.1 L 780.0,237.7 L 800.0,236.1 L 820.0,234.1 L 840.0,231.9 L 860.0,229.4 L 880.0,226.8 L 900.0,224.1 L 920.0,221.3 L 940.0,218.5 L 960.0,215.7 L 980.0,212.9 L 1000.0,210.4 L 1020.0,207.9 L 1040.0,205.7 L 1060.0,203.8 L 1080.0,202.2 L 1100.0,200.8 L 1120.0,199.8 L 1140.0,199.2 L 1160.0,198.9 L 1180.0,199.0 L 1200.0,199.5" fill="none" stroke="#5aaddc" stroke-width="1.4" opacity="0.050"/>
    <path d="M 0.0,236.1 L 20.0,234.6 L 40.0,233.4 L 60.0,232.5 L 80.0,231.9 L 100.0,231.6 L 120.0,231.7 L 140.0,232.1 L 160.0,232.9 L 180.0,234.0 L 200.0,235.4 L 220.0,237.0 L 240.0,239.0 L 260.0,241.2 L 280.0,243.6 L 300.0,246.2 L 320.0,249.0 L 340.0,251.8 L 360.0,254.7 L 380.0,257.6 L 400.0,260.5 L 420.0,263.4 L 440.0,266.1 L 460.0,268.7 L 480.0,271.1 L 500.0,273.3 L 520.0,275.2 L 540.0,276.8 L 560.0,278.2 L 580.0,279.2 L 600.0,279.9 L 620.0,280.2 L 640.0,280.1 L 660.0,279.7 L 680.0,278.9 L 700.0,277.8 L 720.0,276.3 L 740.0,274.5 L 760.0,272.4 L 780.0,270.1 L 800.0,267.5 L 820.0,264.7 L 840.0,261.8 L 860.0,258.7 L 880.0,255.5 L 900.0,252.3 L 920.0,249.1 L 940.0,246.0 L 960.0,242.9 L 980.0,240.0 L 1000.0,237.2 L 1020.0,234.7 L 1040.0,232.4 L 1060.0,230.3 L 1080.0,228.6 L 1100.0,227.1 L 1120.0,226.0 L 1140.0,225.3 L 1160.0,224.9 L 1180.0,224.8 L 1200.0,225.1" fill="none" stroke="#5aaddc" stroke-width="1.4" opacity="0.050"/>
    <path d="M 0.0,284.3 L 20.0,284.3 L 40.0,284.5 L 60.0,284.8 L 80.0,285.3 L 100.0,285.8 L 120.0,286.4 L 140.0,287.1 L 160.0,287.9 L 180.0,288.7 L 200.0,289.6 L 220.0,290.5 L 240.0,291.4 L 260.0,292.2 L 280.0,293.1 L 300.0,293.9 L 320.0,294.6 L 340.0,295.3 L 360.0,295.8 L 380.0,296.3 L 400.0,296.6 L 420.0,296.8 L 440.0,296.8 L 460.0,296.8 L 480.0,296.5 L 500.0,296.2 L 520.0,295.7 L 540.0,295.0 L 560.0,294.3 L 580.0,293.4 L 600.0,292.4 L 620.0,291.2 L 640.0,290.0 L 660.0,288.8 L 680.0,287.4 L 700.0,286.1 L 720.0,284.7 L 740.0,283.3 L 760.0,281.9 L 780.0,280.6 L 800.0,279.3 L 820.0,278.1 L 840.0,277.0 L 860.0,276.0 L 880.0,275.1 L 900.0,274.3 L 920.0,273.7 L 940.0,273.2 L 960.0,272.9 L 980.0,272.7 L 1000.0,272.7 L 1020.0,272.9 L 1040.0,273.2 L 1060.0,273.6 L 1080.0,274.2 L 1100.0,275.0 L 1120.0,275.8 L 1140.0,276.8 L 1160.0,277.8 L 1180.0,278.9 L 1200.0,280.1" fill="none" stroke="#5aaddc" stroke-width="1.4" opacity="0.075"/>
    <path d="M 0.0,317.0 L 20.0,317.9 L 40.0,318.8 L 60.0,319.9 L 80.0,321.0 L 100.0,322.2 L 120.0,323.3 L 140.0,324.4 L 160.0,325.4 L 180.0,326.4 L 200.0,327.2 L 220.0,327.9 L 240.0,328.4 L 260.0,328.8 L 280.0,329.0 L 300.0,328.9 L 320.0,328.7 L 340.0,328.3 L 360.0,327.7 L 380.0,326.9 L 400.0,325.9 L 420.0,324.8 L 440.0,323.5 L 460.0,322.2 L 480.0,320.8 L 500.0,319.3 L 520.0,317.8 L 540.0,316.3 L 560.0,314.9 L 580.0,313.6 L 600.0,312.3 L 620.0,311.2 L 640.0,310.3 L 660.0,309.5 L 680.0,309.0 L 700.0,308.6 L 720.0,308.5 L 740.0,308.6 L 760.0,308.9 L 780.0,309.4 L 800.0,310.2 L 820.0,311.1 L 840.0,312.3 L 860.0,313.6 L 880.0,315.0 L 900.0,316.6 L 920.0,318.2 L 940.0,319.9 L 960.0,321.6 L 980.0,323.3 L 1000.0,325.0 L 1020.0,326.5 L 1040.0,328.0 L 1060.0,329.4 L 1080.0,330.6 L 1100.0,331.6 L 1120.0,332.4 L 1140.0,333.1 L 1160.0,333.5 L 1180.0,333.7 L 1200.0,333.7" fill="none" stroke="#5aaddc" stroke-width="1.4" opacity="0.050"/>
    <path d="M 0.0,356.9 L 20.0,360.9 L 40.0,364.7 L 60.0,368.3 L 80.0,371.4 L 100.0,374.1 L 120.0,376.3 L 140.0,377.8 L 160.0,378.7 L 180.0,378.9 L 200.0,378.5 L 220.0,377.4 L 240.0,375.7 L 260.0,373.4 L 280.0,370.6 L 300.0,367.4 L 320.0,363.9 L 340.0,360.1 L 360.0,356.2 L 380.0,352.4 L 400.0,348.6 L 420.0,345.1 L 440.0,341.9 L 460.0,339.2 L 480.0,336.9 L 500.0,335.2 L 520.0,334.2 L 540.0,333.9 L 560.0,334.2 L 580.0,335.2 L 600.0,336.9 L 620.0,339.2 L 640.0,342.1 L 660.0,345.5 L 680.0,349.3 L 700.0,353.4 L 720.0,357.7 L 740.0,362.2 L 760.0,366.5 L 780.0,370.8 L 800.0,374.8 L 820.0,378.4 L 840.0,381.6 L 860.0,384.3 L 880.0,386.4 L 900.0,387.8 L 920.0,388.5 L 940.0,388.6 L 960.0,387.9 L 980.0,386.6 L 1000.0,384.7 L 1020.0,382.1 L 1040.0,379.1 L 1060.0,375.7 L 1080.0,372.0 L 1100.0,368.1 L 1120.0,364.1 L 1140.0,360.1 L 1160.0,356.3 L 1180.0,352.7 L 1200.0,349.5" fill="none" stroke="#5aaddc" stroke-width="1.4" opacity="0.050"/>
  </g>
  <path d="M 0.0,560.0 L 144.0,500.0 L 360.0,450.0 L 600.0,482.0 L 864.0,432.0 L 1080.0,494.0 L 1200.0,560.0 L 1200.0,760.0 L 0.0,760.0 Z" fill="#11314e" opacity="0.9"/>
  <path d="M 0.0,600.0 L 216.0,530.0 L 480.0,484.0 L 696.0,450.0 L 936.0,504.0 L 1140.0,480.0 L 1200.0,600.0 L 1200.0,800.0 L 0.0,800.0 Z" fill="#0a1f33" opacity="1.0"/>
  <path d="M 0.0,600.0 L 216.0,530.0 L 480.0,484.0 L 696.0,450.0 L 936.0,504.0 L 1140.0,480.0 L 1200.0,600.0" fill="none" stroke="#5aaddc" stroke-width="2" opacity="0.55"/>
  <rect width="1200" height="630" fill="url(#vign)"/>
  <g transform="translate(320.00,196.00) scale(0.6650)">
    <g transform="translate(0,0) scale(1.6718042857142856)">
    <defs>
      <linearGradient id="lk_peak" x1="0" y1="0" x2="0" y2="1">
        <stop offset="0" stop-color="#5aaddc"/>
        <stop offset="1" stop-color="#3f93c4"/>
      </linearGradient>
    </defs>
    <polygon points="4,50 20,20 36,50" fill="rgba(255,255,255,0.22)"/>
    <polygon points="18,50 40,8 62,50" fill="url(#lk_peak)"/>
    <polygon points="40,8 46.8,21 43.5,17.5 40,21.5 36.5,17.5 33.2,21" fill="#ffffff"/>
  </g>
  <path d="M213.25547428571429 32.89821428571428 197.52347428571426 83.59021428571428H186.48347428571427L176.27147428571428 46.14621428571428L166.05947428571426 83.59021428571428H155.01947428571427L139.19547428571425 32.89821428571428H149.86747428571428L160.44747428571426 73.65421428571429L171.21147428571427 32.89821428571428H182.15947428571428L192.46347428571426 73.47021428571428L202.95147428571426 32.89821428571428Z M267.9034742857143 53.69021428571428V83.59021428571428H257.5074742857143V55.25421428571428Q257.5074742857143 48.446214285714284 254.1034742857143 44.81221428571428Q250.69947428571427 41.17821428571428 244.81147428571427 41.17821428571428Q238.9234742857143 41.17821428571428 235.4734742857143 44.81221428571428Q232.0234742857143 48.446214285714284 232.0234742857143 55.25421428571428V83.59021428571428H221.5354742857143V15.510214285714284H232.0234742857143V38.78621428571428Q234.6914742857143 35.56621428571428 238.7854742857143 33.818214285714284Q242.87947428571428 32.070214285714286 247.75547428571429 32.070214285714286Q253.55147428571428 32.070214285714286 258.1054742857143 34.55421428571428Q262.6594742857143 37.03821428571428 265.2814742857143 41.91421428571428Q267.9034742857143 46.790214285714285 267.9034742857143 53.69021428571428Z M327.7954742857143 62.15421428571428H289.0634742857143Q289.5234742857143 68.22621428571428 293.5714742857143 71.90621428571427Q297.61947428571426 75.58621428571428 303.5074742857143 75.58621428571428Q311.9714742857143 75.58621428571428 315.4674742857143 68.50221428571429H326.7834742857143Q324.4834742857143 75.49421428571428 318.4574742857143 79.95621428571428Q312.4314742857143 84.41821428571428 303.5074742857143 84.41821428571428Q296.23947428571427 84.41821428571428 290.48947428571427 81.15221428571428Q284.73947428571427 77.88621428571429 281.47347428571425 71.95221428571429Q278.2074742857143 66.01821428571428 278.2074742857143 58.198214285714286Q278.2074742857143 50.378214285714286 281.38147428571426 44.44421428571428Q284.5554742857143 38.510214285714284 290.3054742857143 35.290214285714285Q296.0554742857143 32.070214285714286 303.5074742857143 32.070214285714286Q310.6834742857143 32.070214285714286 316.29547428571425 35.198214285714286Q321.9074742857143 38.326214285714286 325.03547428571426 43.98421428571429Q328.1634742857143 49.64221428571428 328.1634742857143 57.00221428571428Q328.1634742857143 59.85421428571428 327.7954742857143 62.15421428571428ZM317.21547428571427 53.69021428571428Q317.1234742857143 47.894214285714284 313.0754742857143 44.39821428571428Q309.0274742857143 40.90221428571428 303.0474742857143 40.90221428571428Q297.61947428571426 40.90221428571428 293.7554742857143 44.35221428571428Q289.8914742857143 47.802214285714285 289.15547428571426 53.69021428571428Z M364.59547428571426 32.070214285714286V42.92621428571428H361.92747428571425Q355.76347428571427 42.92621428571428 352.58947428571423 46.05421428571428Q349.41547428571425 49.18221428571428 349.41547428571425 56.91021428571428V83.59021428571428H338.92747428571425V32.89821428571428H349.41547428571425V40.25821428571428Q351.71547428571427 36.394214285714284 355.5334742857143 34.232214285714285Q359.3514742857143 32.070214285714286 364.59547428571426 32.070214285714286Z M420.8074742857143 62.15421428571428H382.0754742857143Q382.53547428571426 68.22621428571428 386.58347428571426 71.90621428571427Q390.63147428571426 75.58621428571428 396.5194742857143 75.58621428571428Q404.9834742857143 75.58621428571428 408.4794742857143 68.50221428571429H419.7954742857143Q417.4954742857143 75.49421428571428 411.4694742857143 79.95621428571428Q405.4434742857143 84.41821428571428 396.5194742857143 84.41821428571428Q389.25147428571427 84.41821428571428 383.50147428571427 81.15221428571428Q377.75147428571427 77.88621428571429 374.4854742857143 71.95221428571429Q371.2194742857143 66.01821428571428 371.2194742857143 58.198214285714286Q371.2194742857143 50.378214285714286 374.3934742857143 44.44421428571428Q377.5674742857143 38.510214285714284 383.3174742857143 35.290214285714285Q389.0674742857143 32.070214285714286 396.5194742857143 32.070214285714286Q403.6954742857143 32.070214285714286 409.3074742857143 35.198214285714286Q414.9194742857143 38.326214285714286 418.0474742857143 43.98421428571429Q421.1754742857143 49.64221428571428 421.1754742857143 57.00221428571428Q421.1754742857143 59.85421428571428 420.8074742857143 62.15421428571428ZM410.22747428571427 53.69021428571428Q410.1354742857143 47.894214285714284 406.0874742857143 44.39821428571428Q402.0394742857143 40.90221428571428 396.05947428571426 40.90221428571428Q390.63147428571426 40.90221428571428 386.7674742857143 44.35221428571428Q382.9034742857143 47.802214285714285 382.16747428571426 53.69021428571428Z M444.1754742857143 41.45421428571428V69.51421428571427Q444.1754742857143 72.36621428571428 445.5094742857143 73.60821428571428Q446.84347428571425 74.85021428571429 450.0634742857143 74.85021428571429H456.5034742857143V83.59021428571428H448.2234742857143Q441.1394742857143 83.59021428571428 437.36747428571425 80.27821428571428Q433.59547428571426 76.96621428571429 433.59547428571426 69.51421428571427V41.45421428571428H427.6154742857143V32.89821428571428H433.59547428571426V20.294214285714283H444.1754742857143V32.89821428571428H456.5034742857143V41.45421428571428Z M463.2194742857142 58.198214285714286Q463.2194742857142 50.470214285714285 466.6234742857142 44.49021428571429Q470.0274742857142 38.510214285714284 475.91547428571425 35.290214285714285Q481.80347428571423 32.070214285714286 489.07147428571426 32.070214285714286Q496.33947428571423 32.070214285714286 502.22747428571427 35.290214285714285Q508.11547428571424 38.510214285714284 511.5194742857143 44.49021428571429Q514.9234742857143 50.470214285714285 514.9234742857143 58.198214285714286Q514.9234742857143 65.92621428571428 511.42747428571425 71.90621428571428Q507.9314742857142 77.88621428571429 501.90547428571426 81.15221428571428Q495.87947428571425 84.41821428571428 488.6114742857142 84.41821428571428Q481.43547428571424 84.41821428571428 475.63947428571424 81.15221428571428Q469.84347428571425 77.88621428571429 466.53147428571424 71.95221428571429Q463.2194742857142 66.01821428571428 463.2194742857142 58.198214285714286ZM504.1594742857142 58.198214285714286Q504.1594742857142 52.67821428571428 502.04347428571424 48.86021428571428Q499.92747428571425 45.04221428571428 496.4314742857142 43.11021428571428Q492.93547428571424 41.17821428571428 488.88747428571423 41.17821428571428Q484.83947428571423 41.17821428571428 481.38947428571424 43.11021428571428Q477.93947428571425 45.04221428571428 475.91547428571425 48.86021428571428Q473.89147428571425 52.67821428571428 473.89147428571425 58.198214285714286Q473.89147428571425 66.38621428571429 478.0774742857143 70.84821428571428Q482.26347428571427 75.31021428571428 488.6114742857142 75.31021428571428Q492.6594742857142 75.31021428571428 496.2014742857142 73.37821428571428Q499.7434742857142 71.44621428571428 501.9514742857142 67.58221428571429Q504.1594742857142 63.71821428571428 504.1594742857142 58.198214285714286Z M523.0194742857142 68.04221428571428H533.8754742857142Q534.1514742857142 71.26221428571428 536.9574742857142 73.42421428571427Q539.7634742857142 75.58621428571428 543.9954742857142 75.58621428571428Q548.4114742857142 75.58621428571428 550.8494742857142 73.88421428571428Q553.2874742857142 72.18221428571428 553.2874742857142 69.51421428571427Q553.2874742857142 66.66221428571428 550.5734742857142 65.28221428571428Q547.8594742857142 63.90221428571428 541.9714742857142 62.24621428571428Q536.2674742857142 60.68221428571428 532.6794742857142 59.21021428571428Q529.0914742857142 57.73821428571428 526.4694742857141 54.70221428571428Q523.8474742857142 51.66621428571428 523.8474742857142 46.698214285714286Q523.8474742857142 42.650214285714284 526.2394742857141 39.29221428571428Q528.6314742857141 35.93421428571428 533.0934742857141 34.00221428571429Q537.5554742857142 32.070214285714286 543.3514742857142 32.070214285714286Q551.9994742857142 32.070214285714286 557.2894742857143 36.44021428571428Q562.5794742857142 40.81021428571428 562.9474742857142 48.354214285714285H552.4594742857142Q552.1834742857142 44.95021428571428 549.6994742857141 42.92621428571428Q547.2154742857142 40.90221428571428 542.9834742857142 40.90221428571428Q538.8434742857141 40.90221428571428 536.6354742857142 42.46621428571428Q534.4274742857142 44.03021428571428 534.4274742857142 46.60621428571428Q534.4274742857142 48.63021428571428 535.8994742857142 50.010214285714284Q537.3714742857142 51.39021428571428 539.4874742857141 52.17221428571428Q541.6034742857142 52.954214285714286 545.7434742857142 54.150214285714284Q551.2634742857142 55.62221428571428 554.8054742857141 57.14021428571428Q558.3474742857142 58.65821428571428 560.9234742857142 61.60221428571428Q563.4994742857142 64.54621428571429 563.5914742857142 69.42221428571429Q563.5914742857142 73.74621428571429 561.1994742857141 77.15021428571428Q558.8074742857142 80.55421428571428 554.4374742857142 82.48621428571428Q550.0674742857142 84.41821428571428 544.1794742857142 84.41821428571428Q538.1994742857142 84.41821428571428 533.4614742857143 82.2562142857143Q528.7234742857142 80.09421428571429 525.9634742857143 76.36821428571429Q523.2034742857142 72.64221428571429 523.0194742857142 68.04221428571428Z M595.4234742857142 58.290214285714285 618.7914742857141 83.59021428571428H604.6234742857141L585.8554742857142 61.78621428571428V83.59021428571428H575.3674742857141V15.510214285714284H585.8554742857142V55.070214285714286L604.2554742857142 32.89821428571428H618.7914742857141Z M625.4154742857141 19.466214285714287Q625.4154742857141 16.614214285714283 627.3474742857142 14.68221428571428Q629.2794742857142 12.750214285714279 632.1314742857141 12.750214285714279Q634.8914742857141 12.750214285714279 636.8234742857142 14.68221428571428Q638.7554742857142 16.614214285714283 638.7554742857142 19.466214285714287Q638.7554742857142 22.318214285714284 636.8234742857142 24.250214285714282Q634.8914742857141 26.18221428571428 632.1314742857141 26.18221428571428Q629.2794742857142 26.18221428571428 627.3474742857142 24.250214285714282Q625.4154742857141 22.318214285714284 625.4154742857141 19.466214285714287ZM637.2834742857142 32.89821428571428V83.59021428571428H626.7954742857141V32.89821428571428Z" fill="#ffffff"/>
  <path d="M697.9114742857142 53.69021428571428V83.59021428571428H687.5154742857142V55.25421428571428Q687.5154742857142 48.446214285714284 684.1114742857142 44.81221428571428Q680.7074742857142 41.17821428571428 674.8194742857143 41.17821428571428Q668.9314742857142 41.17821428571428 665.4814742857143 44.81221428571428Q662.0314742857142 48.446214285714284 662.0314742857142 55.25421428571428V83.59021428571428H651.5434742857142V32.89821428571428H662.0314742857142V38.69421428571428Q664.6074742857143 35.56621428571428 668.6094742857142 33.818214285714284Q672.6114742857142 32.070214285714286 677.1194742857142 32.070214285714286Q683.0994742857142 32.070214285714286 687.8374742857143 34.55421428571428Q692.5754742857142 37.03821428571428 695.2434742857142 41.91421428571428Q697.9114742857142 46.790214285714285 697.9114742857142 53.69021428571428Z M757.8034742857142 62.15421428571428H719.0714742857142Q719.5314742857142 68.22621428571428 723.5794742857142 71.90621428571427Q727.6274742857142 75.58621428571428 733.5154742857142 75.58621428571428Q741.9794742857142 75.58621428571428 745.4754742857142 68.50221428571429H756.7914742857142Q754.4914742857142 75.49421428571428 748.4654742857142 79.95621428571428Q742.4394742857143 84.41821428571428 733.5154742857142 84.41821428571428Q726.2474742857142 84.41821428571428 720.4974742857142 81.15221428571428Q714.7474742857142 77.88621428571429 711.4814742857143 71.95221428571429Q708.2154742857142 66.01821428571428 708.2154742857142 58.198214285714286Q708.2154742857142 50.378214285714286 711.3894742857142 44.44421428571428Q714.5634742857142 38.510214285714284 720.3134742857142 35.290214285714285Q726.0634742857142 32.070214285714286 733.5154742857142 32.070214285714286Q740.6914742857142 32.070214285714286 746.3034742857142 35.198214285714286Q751.9154742857143 38.326214285714286 755.0434742857142 43.98421428571429Q758.1714742857142 49.64221428571428 758.1714742857142 57.00221428571428Q758.1714742857142 59.85421428571428 757.8034742857142 62.15421428571428ZM747.2234742857142 53.69021428571428Q747.1314742857143 47.894214285714284 743.0834742857143 44.39821428571428Q739.0354742857143 40.90221428571428 733.0554742857142 40.90221428571428Q727.6274742857142 40.90221428571428 723.7634742857142 44.35221428571428Q719.8994742857142 47.802214285714285 719.1634742857142 53.69021428571428Z M790.6474742857142 57.92221428571428 807.0234742857142 83.59021428571428H795.1554742857143L784.2074742857143 66.38621428571429L773.9034742857143 83.59021428571428H762.9554742857142L779.3314742857143 58.65821428571428L762.9554742857142 32.89821428571428H774.8234742857143L785.7714742857142 50.10221428571428L796.0754742857142 32.89821428571428H807.0234742857142Z M827.5394742857143 41.45421428571428V69.51421428571427Q827.5394742857143 72.36621428571428 828.8734742857143 73.60821428571428Q830.2074742857143 74.85021428571429 833.4274742857143 74.85021428571429H839.8674742857143V83.59021428571428H831.5874742857143Q824.5034742857143 83.59021428571428 820.7314742857143 80.27821428571428Q816.9594742857144 76.96621428571429 816.9594742857144 69.51421428571427V41.45421428571428H810.9794742857143V32.89821428571428H816.9594742857144V20.294214285714283H827.5394742857143V32.89821428571428H839.8674742857143V41.45421428571428Z" fill="#5aaddc"/>
  </g>
  <path d="M387.28049999999996 353.127V354.693H378.9645V361.74H385.98449999999997V363.306H378.9645V372.0H377.0745V353.127Z M391.0335 353.073Q391.0335 352.479 391.4385 352.0875Q391.8435 351.696 392.4105 351.696Q392.9775 351.696 393.38250000000005 352.0875Q393.7875 352.479 393.7875 353.073Q393.7875 353.66700000000003 393.38250000000005 354.072Q392.9775 354.477 392.4105 354.477Q391.8435 354.477 391.4385 354.072Q391.0335 353.66700000000003 391.0335 353.073ZM393.3555 357.258V372.0H391.4655V357.258Z M411.63449999999995 363.36V372.0H409.77149999999995V363.576Q409.77149999999995 361.173 408.56999999999994 359.904Q407.3685 358.635 405.2895 358.635Q403.1565 358.635 401.8875 359.985Q400.6185 361.335 400.6185 363.954V372.0H398.7285V357.258H400.6185V359.769Q401.3205 358.419 402.6435 357.70349999999996Q403.9665 356.988 405.6405 356.988Q408.2865 356.988 409.96049999999997 358.62149999999997Q411.63449999999995 360.255 411.63449999999995 363.36Z M423.10949999999997 357.042Q425.0535 357.042 426.6195 357.98699999999997Q428.1855 358.932 428.9145 360.444V352.02H430.80449999999996V372.0H428.9145V368.706Q428.23949999999996 370.245 426.7005 371.2305Q425.1615 372.216 423.0825 372.216Q421.05749999999995 372.216 419.45099999999996 371.271Q417.8445 370.326 416.93999999999994 368.598Q416.03549999999996 366.87 416.03549999999996 364.602Q416.03549999999996 362.334 416.95349999999996 360.6195Q417.87149999999997 358.905 419.47799999999995 357.97349999999994Q421.0845 357.042 423.10949999999997 357.042ZM423.4335 358.689Q421.86749999999995 358.689 420.6255 359.391Q419.38349999999997 360.093 418.668 361.4295Q417.9525 362.766 417.9525 364.602Q417.9525 366.411 418.668 367.7745Q419.38349999999997 369.138 420.6255 369.8535Q421.86749999999995 370.569 423.4335 370.569Q424.9455 370.569 426.20099999999996 369.84000000000003Q427.45649999999995 369.111 428.18549999999993 367.76099999999997Q428.9145 366.411 428.9145 364.629Q428.9145 362.847 428.18549999999993 361.49699999999996Q427.45649999999995 360.147 426.20099999999996 359.418Q424.9455 358.689 423.4335 358.689Z M447.1395 358.851V368.004Q447.1395 369.354 447.6525 369.86699999999996Q448.16549999999995 370.38 449.4615 370.38H451.18949999999995V372.0H449.1645Q447.1665 372.0 446.19449999999995 371.0685Q445.22249999999997 370.137 445.22249999999997 368.004V358.851H443.1705V357.258H445.22249999999997V353.559H447.1395V357.258H451.18949999999995V358.851Z M468.28049999999996 363.36V372.0H466.41749999999996V363.576Q466.41749999999996 361.173 465.216 359.904Q464.0145 358.635 461.9355 358.635Q459.8025 358.635 458.5335 359.985Q457.2645 361.335 457.2645 363.954V372.0H455.3745V352.02H457.2645V359.769Q457.9665 358.446 459.33 357.717Q460.6935 356.988 462.3945 356.988Q464.0685 356.988 465.405 357.69Q466.7415 358.392 467.51099999999997 359.8365Q468.28049999999996 361.281 468.28049999999996 363.36Z M486.8295 365.358H474.5985Q474.67949999999996 367.032 475.4085 368.22Q476.1375 369.408 477.3255 370.0155Q478.51349999999996 370.623 479.91749999999996 370.623Q481.7535 370.623 483.009 369.73199999999997Q484.2645 368.841 484.66949999999997 367.329H486.66749999999996Q486.1275 369.489 484.359 370.85249999999996Q482.59049999999996 372.216 479.91749999999996 372.216Q477.83849999999995 372.216 476.19149999999996 371.2845Q474.54449999999997 370.353 473.61299999999994 368.6385Q472.68149999999997 366.924 472.68149999999997 364.629Q472.68149999999997 362.334 473.5995 360.606Q474.5175 358.878 476.1645 357.96Q477.81149999999997 357.042 479.91749999999996 357.042Q482.02349999999996 357.042 483.60299999999995 357.96Q485.1825 358.878 486.033 360.4305Q486.88349999999997 361.983 486.88349999999997 363.873Q486.88349999999997 364.845 486.8295 365.358ZM479.8365 358.662Q477.7305 358.662 476.2455 360.012Q474.7605 361.362 474.5985 363.819H484.9665Q484.9935 362.172 484.30499999999995 361.011Q483.6165 359.85 482.4285 359.256Q481.2405 358.662 479.8365 358.662Z M499.0335 367.842H500.9775Q501.1125 369.084 502.15200000000004 369.8535Q503.1915 370.623 504.9465 370.623Q506.4855 370.623 507.363 369.894Q508.2405 369.165 508.2405 368.085Q508.2405 367.329 507.7545 366.843Q507.2685 366.357 506.526 366.0735Q505.7835 365.79 504.5145 365.466Q502.8675 365.034 501.8415 364.602Q500.8155 364.17 500.1 363.3195Q499.3845 362.469 499.3845 361.038Q499.3845 359.958 500.0325 359.04Q500.6805 358.122 501.86850000000004 357.582Q503.0565 357.042 504.56850000000003 357.042Q506.9445 357.042 508.40250000000003 358.2435Q509.8605 359.445 509.9685 361.551H508.0785Q507.9975 360.255 507.06600000000003 359.45849999999996Q506.1345 358.662 504.5145 358.662Q503.0835 358.662 502.1925 359.337Q501.30150000000003 360.012 501.30150000000003 361.011Q501.30150000000003 361.875 501.82800000000003 362.4285Q502.35450000000003 362.98199999999997 503.13750000000005 363.2925Q503.9205 363.603 505.24350000000004 363.981Q506.8365 364.413 507.7815 364.818Q508.7265 365.223 509.4015 366.006Q510.0765 366.789 510.1035 368.085Q510.1035 369.273 509.45550000000003 370.20450000000005Q508.8075 371.136 507.6465 371.67600000000004Q506.4855 372.216 504.9735 372.216Q502.4355 372.216 500.829 371.04150000000004Q499.2225 369.867 499.0335 367.842Z M527.6535 363.36V372.0H525.7905V363.576Q525.7905 361.173 524.5889999999999 359.904Q523.3874999999999 358.635 521.3085 358.635Q519.1754999999999 358.635 517.9064999999999 359.985Q516.6374999999999 361.335 516.6374999999999 363.954V372.0H514.7475V357.258H516.6374999999999V359.769Q517.3394999999999 358.419 518.6624999999999 357.70349999999996Q519.9855 356.988 521.6595 356.988Q524.3054999999999 356.988 525.9794999999999 358.62149999999997Q527.6535 360.255 527.6535 363.36Z M532.0545000000001 364.629Q532.0545000000001 362.334 533.0265 360.6195Q533.9985 358.905 535.6725 357.97349999999994Q537.3465 357.042 539.4255 357.042Q541.5045 357.042 543.192 357.97349999999994Q544.8795 358.905 545.838 360.6195Q546.7965 362.334 546.7965 364.629Q546.7965 366.897 545.8245000000001 368.625Q544.8525000000001 370.353 543.1515 371.2845Q541.4505 372.216 539.3715 372.216Q537.2925 372.216 535.6320000000001 371.2845Q533.9715 370.353 533.013 368.6385Q532.0545000000001 366.924 532.0545000000001 364.629ZM544.8525000000001 364.629Q544.8525000000001 362.685 544.0965000000001 361.3485Q543.3405 360.012 542.0985000000001 359.3505Q540.8565 358.689 539.3985 358.689Q537.9405 358.689 536.6985 359.3505Q535.4565 360.012 534.7139999999999 361.3485Q533.9715 362.685 533.9715 364.629Q533.9715 366.573 534.7139999999999 367.9095Q535.4565 369.246 536.685 369.9075Q537.9135 370.569 539.3715 370.569Q540.8295 370.569 542.0715 369.9075Q543.3135 369.246 544.0830000000001 367.9095Q544.8525000000001 366.573 544.8525000000001 364.629Z M570.7725 357.258 566.1555 372.0H564.2655L560.1885 359.634L556.1115 372.0H554.1945000000001L549.5775 357.258H551.4945L555.1665 370.083L559.2975 357.258H561.1875L565.2645 370.11L568.9095 357.258Z M573.3645 370.731Q573.3645 370.137 573.7560000000001 369.7455Q574.1475 369.354 574.7415000000001 369.354Q575.3085000000001 369.354 575.7 369.7455Q576.0915 370.137 576.0915 370.731Q576.0915 371.325 575.7 371.73Q575.3085000000001 372.135 574.7415000000001 372.135Q574.1475 372.135 573.7560000000001 371.73Q573.3645 371.325 573.3645 370.731Z M596.7194999999999 367.14H598.7175Q598.8525 368.517 599.9324999999999 369.5565Q601.0124999999999 370.596 603.0915 370.596Q605.0085 370.596 606.129 369.6105Q607.2495 368.625 607.2495 367.113Q607.2495 365.898 606.6285 365.1555Q606.0074999999999 364.413 605.0895 364.0485Q604.1715 363.684 602.5515 363.252Q600.6614999999999 362.739 599.5545 362.253Q598.4475 361.767 597.6645 360.741Q596.8815 359.715 596.8815 357.96Q596.8815 356.502 597.6375 355.35450000000003Q598.3935 354.207 599.7705000000001 353.55899999999997Q601.1475 352.911 602.9295 352.911Q605.5485 352.911 607.155 354.1935Q608.7615 355.476 609.0045 357.501H606.9525Q606.7635 356.34 605.6835 355.4355Q604.6034999999999 354.531 602.7674999999999 354.531Q601.0665 354.531 599.9325 355.4355Q598.7985 356.34 598.7985 357.906Q598.7985 359.094 599.4195 359.823Q600.0405 360.552 600.972 360.93Q601.9035 361.308 603.4965 361.74Q605.3325 362.253 606.4665 362.7525Q607.6005 363.252 608.3834999999999 364.278Q609.1664999999999 365.304 609.1664999999999 367.032Q609.1664999999999 368.355 608.4644999999999 369.543Q607.7624999999999 370.731 606.3855 371.46000000000004Q605.0085 372.189 603.0915 372.189Q601.2284999999999 372.189 599.8109999999999 371.541Q598.3935 370.893 597.5835 369.73199999999997Q596.7735 368.571 596.7194999999999 367.14Z M621.8565 372.0 615.7814999999999 365.385V372.0H613.8915V352.02H615.7814999999999V363.846L621.7215 357.258H624.3675L617.3745 364.602L624.4215 372.0Z M627.4994999999999 353.073Q627.4994999999999 352.479 627.9044999999999 352.0875Q628.3095 351.696 628.8765 351.696Q629.4435 351.696 629.8485 352.0875Q630.2534999999999 352.479 630.2534999999999 353.073Q630.2534999999999 353.66700000000003 629.8485 354.072Q629.4435 354.477 628.8765 354.477Q628.3095 354.477 627.9044999999999 354.072Q627.4994999999999 353.66700000000003 627.4994999999999 353.073ZM629.8214999999999 357.258V372.0H627.9314999999999V357.258Z M642.9164999999999 357.042Q644.9145 357.042 646.521 357.97349999999994Q648.1274999999999 358.905 649.0319999999999 360.6195Q649.9365 362.334 649.9365 364.602Q649.9365 366.87 649.0319999999999 368.598Q648.1274999999999 370.326 646.521 371.271Q644.9145 372.216 642.9164999999999 372.216Q640.8375 372.216 639.2985 371.2305Q637.7595 370.245 637.0575 368.76V378.966H635.1945V357.258H637.0575V360.498Q637.7595 359.013 639.285 358.0275Q640.8104999999999 357.042 642.9164999999999 357.042ZM642.5385 358.689Q641.0264999999999 358.689 639.771 359.418Q638.5155 360.147 637.7864999999999 361.49699999999996Q637.0575 362.847 637.0575 364.629Q637.0575 366.411 637.7864999999999 367.76099999999997Q638.5155 369.111 639.771 369.84000000000003Q641.0264999999999 370.569 642.5385 370.569Q644.1045 370.569 645.3465 369.8535Q646.5885 369.138 647.304 367.7745Q648.0195 366.411 648.0195 364.602Q648.0195 362.766 647.304 361.4295Q646.5885 360.093 645.3465 359.391Q644.1045 358.689 642.5385 358.689Z M665.4344999999998 358.851V368.004Q665.4344999999998 369.354 665.9474999999999 369.86699999999996Q666.4604999999999 370.38 667.7564999999998 370.38H669.4844999999999V372.0H667.4594999999999Q665.4614999999999 372.0 664.4894999999999 371.0685Q663.5174999999999 370.137 663.5174999999999 368.004V358.851H661.4654999999999V357.258H663.5174999999999V353.559H665.4344999999998V357.258H669.4844999999999V358.851Z M686.5754999999999 363.36V372.0H684.7124999999999V363.576Q684.7124999999999 361.173 683.5109999999999 359.904Q682.3094999999998 358.635 680.2304999999999 358.635Q678.0974999999999 358.635 676.8284999999998 359.985Q675.5594999999998 361.335 675.5594999999998 363.954V372.0H673.6694999999999V352.02H675.5594999999998V359.769Q676.2614999999998 358.446 677.6249999999999 357.717Q678.9884999999999 356.988 680.6894999999998 356.988Q682.3634999999999 356.988 683.6999999999999 357.69Q685.0364999999999 358.392 685.8059999999999 359.8365Q686.5754999999999 361.281 686.5754999999999 363.36Z M705.1244999999999 365.358H692.8934999999999Q692.9744999999999 367.032 693.7034999999998 368.22Q694.4324999999999 369.408 695.6205 370.0155Q696.8085 370.623 698.2125 370.623Q700.0485 370.623 701.304 369.73199999999997Q702.5595 368.841 702.9644999999999 367.329H704.9625Q704.4224999999999 369.489 702.654 370.85249999999996Q700.8855 372.216 698.2125 372.216Q696.1334999999999 372.216 694.4865 371.2845Q692.8394999999999 370.353 691.9079999999999 368.6385Q690.9765 366.924 690.9765 364.629Q690.9765 362.334 691.8944999999999 360.606Q692.8124999999999 358.878 694.4594999999999 357.96Q696.1065 357.042 698.2125 357.042Q700.3185 357.042 701.8979999999999 357.96Q703.4775 358.878 704.328 360.4305Q705.1785 361.983 705.1785 363.873Q705.1785 364.845 705.1244999999999 365.358ZM698.1315 358.662Q696.0255 358.662 694.5405 360.012Q693.0554999999999 361.362 692.8934999999999 363.819H703.2615Q703.2884999999999 362.172 702.5999999999999 361.011Q701.9114999999999 359.85 700.7235 359.256Q699.5355 358.662 698.1315 358.662Z M724.4834999999999 357.042Q727.2104999999999 357.042 728.9789999999999 358.392Q730.7475 359.742 731.2604999999999 362.064H729.2354999999999Q728.8575 360.471 727.6019999999999 359.5665Q726.3464999999999 358.662 724.4834999999999 358.662Q722.9984999999999 358.662 721.8104999999999 359.337Q720.6225 360.012 719.934 361.3485Q719.2454999999999 362.685 719.2454999999999 364.629Q719.2454999999999 366.573 719.934 367.923Q720.6225 369.273 721.8104999999999 369.948Q722.9984999999999 370.623 724.4834999999999 370.623Q726.3464999999999 370.623 727.6019999999999 369.7185Q728.8575 368.814 729.2354999999999 367.194H731.2604999999999Q730.7475 369.462 728.9654999999999 370.839Q727.1834999999999 372.216 724.4834999999999 372.216Q722.4044999999999 372.216 720.7844999999999 371.2845Q719.1644999999999 370.353 718.2465 368.6385Q717.3285 366.924 717.3285 364.629Q717.3285 362.334 718.2465 360.6195Q719.1644999999999 358.905 720.7844999999999 357.97349999999994Q722.4044999999999 357.042 724.4834999999999 357.042Z M742.7624999999999 356.988V358.959H742.2494999999999Q740.1974999999999 358.959 738.9554999999998 360.06600000000003Q737.7134999999998 361.173 737.7134999999998 363.765V372.0H735.8234999999999V357.258H737.7134999999998V359.877Q738.3344999999999 358.5 739.617 357.744Q740.8994999999999 356.988 742.7624999999999 356.988Z M745.8135 364.629Q745.8135 362.334 746.7855 360.6195Q747.7574999999999 358.905 749.4314999999999 357.97349999999994Q751.1054999999999 357.042 753.1845 357.042Q755.2634999999999 357.042 756.9509999999999 357.97349999999994Q758.6384999999999 358.905 759.597 360.6195Q760.5554999999999 362.334 760.5554999999999 364.629Q760.5554999999999 366.897 759.5835 368.625Q758.6115 370.353 756.9105 371.2845Q755.2094999999999 372.216 753.1305 372.216Q751.0514999999999 372.216 749.3909999999998 371.2845Q747.7304999999999 370.353 746.7719999999999 368.6385Q745.8135 366.924 745.8135 364.629ZM758.6115 364.629Q758.6115 362.685 757.8554999999999 361.3485Q757.0994999999999 360.012 755.8574999999998 359.3505Q754.6154999999999 358.689 753.1574999999999 358.689Q751.6995 358.689 750.4575 359.3505Q749.2154999999999 360.012 748.473 361.3485Q747.7304999999999 362.685 747.7304999999999 364.629Q747.7304999999999 366.573 748.473 367.9095Q749.2154999999999 369.246 750.444 369.9075Q751.6724999999999 370.569 753.1305 370.569Q754.5885 370.569 755.8304999999999 369.9075Q757.0724999999999 369.246 757.8419999999999 367.9095Q758.6115 366.573 758.6115 364.629Z M784.5314999999999 357.258 779.9144999999999 372.0H778.0244999999999L773.9474999999999 359.634L769.8704999999999 372.0H767.9535L763.3364999999999 357.258H765.2534999999999L768.9254999999999 370.083L773.0564999999999 357.258H774.9464999999999L779.0234999999999 370.11L782.6684999999999 357.258Z M794.3865 357.042Q796.3304999999999 357.042 797.8965 357.98699999999997Q799.4625 358.932 800.1914999999999 360.444V352.02H802.0815V372.0H800.1914999999999V368.706Q799.5165 370.245 797.9775 371.2305Q796.4385 372.216 794.3594999999999 372.216Q792.3344999999999 372.216 790.728 371.271Q789.1215 370.326 788.217 368.598Q787.3125 366.87 787.3125 364.602Q787.3125 362.334 788.2304999999999 360.6195Q789.1484999999999 358.905 790.7549999999999 357.97349999999994Q792.3615 357.042 794.3865 357.042ZM794.7104999999999 358.689Q793.1445 358.689 791.9024999999999 359.391Q790.6605 360.093 789.9449999999999 361.4295Q789.2294999999999 362.766 789.2294999999999 364.602Q789.2294999999999 366.411 789.9449999999999 367.7745Q790.6605 369.138 791.9024999999999 369.8535Q793.1445 370.569 794.7104999999999 370.569Q796.2225 370.569 797.478 369.84000000000003Q798.7334999999999 369.111 799.4624999999999 367.76099999999997Q800.1914999999999 366.411 800.1914999999999 364.629Q800.1914999999999 362.847 799.4624999999999 361.49699999999996Q798.7334999999999 360.147 797.478 359.418Q796.2225 358.689 794.7104999999999 358.689Z M806.6175 367.842H808.5614999999999Q808.6964999999999 369.084 809.7359999999999 369.8535Q810.7754999999999 370.623 812.5304999999998 370.623Q814.0695 370.623 814.9469999999999 369.894Q815.8245 369.165 815.8245 368.085Q815.8245 367.329 815.3384999999998 366.843Q814.8524999999998 366.357 814.1099999999999 366.0735Q813.3675 365.79 812.0985 365.466Q810.4514999999999 365.034 809.4254999999998 364.602Q808.3994999999999 364.17 807.684 363.3195Q806.9685 362.469 806.9685 361.038Q806.9685 359.958 807.6164999999999 359.04Q808.2644999999999 358.122 809.4524999999999 357.582Q810.6404999999999 357.042 812.1524999999999 357.042Q814.5284999999999 357.042 815.9865 358.2435Q817.4445 359.445 817.5524999999999 361.551H815.6624999999999Q815.5814999999999 360.255 814.6499999999999 359.45849999999996Q813.7185 358.662 812.0985 358.662Q810.6674999999999 358.662 809.7764999999999 359.337Q808.8854999999999 360.012 808.8854999999999 361.011Q808.8854999999999 361.875 809.4119999999998 362.4285Q809.9384999999999 362.98199999999997 810.7214999999999 363.2925Q811.5044999999999 363.603 812.8274999999999 363.981Q814.4205 364.413 815.3654999999999 364.818Q816.3104999999999 365.223 816.9855 366.006Q817.6605 366.789 817.6874999999999 368.085Q817.6874999999999 369.273 817.0394999999999 370.20450000000005Q816.3915 371.136 815.2304999999999 371.67600000000004Q814.0695 372.216 812.5574999999999 372.216Q810.0194999999999 372.216 808.4129999999999 371.04150000000004Q806.8064999999999 369.867 806.6175 367.842Z M821.2784999999999 370.731Q821.2784999999999 370.137 821.6699999999998 369.7455Q822.0614999999999 369.354 822.6555 369.354Q823.2225 369.354 823.6139999999999 369.7455Q824.0054999999999 370.137 824.0054999999999 370.731Q824.0054999999999 371.325 823.6139999999999 371.73Q823.2225 372.135 822.6555 372.135Q822.0614999999999 372.135 821.6699999999998 371.73Q821.2784999999999 371.325 821.2784999999999 370.731Z" fill="#cfe0ee"/>
  <path d="M431.52150000000006 554.151 428.08750000000003 566.0H426.35350000000005L423.59950000000003 556.463L420.74350000000004 566.0L419.02650000000006 566.017L415.71150000000006 554.151H417.36050000000006L419.94450000000006 564.198L422.80050000000006 554.151H424.53450000000004L427.25450000000006 564.164L429.85550000000006 554.151Z M453.0095 554.151V566.0H451.46250000000003V560.628H445.4275V566.0H443.88050000000004V554.151H445.4275V559.353H451.46250000000003V554.151Z M467.8505 555.409V559.37H472.1685V560.645H467.8505V564.725H472.67850000000004V566.0H466.30350000000004V554.134H472.67850000000004V555.409Z M491.9225 566.0 489.1005 561.155H487.2305V566.0H485.68350000000004V554.151H489.5085Q490.8515 554.151 491.778 554.6099999999999Q492.7045 555.069 493.1635 555.851Q493.6225 556.633 493.6225 557.636Q493.6225 558.86 492.91700000000003 559.7950000000001Q492.2115 560.73 490.8005 561.036L493.7755 566.0ZM487.2305 559.914H489.5085Q490.7665 559.914 491.39549999999997 559.2935Q492.0245 558.673 492.0245 557.636Q492.0245 556.582 491.404 556.004Q490.7835 555.426 489.5085 555.426H487.2305Z M508.2255 555.409V559.37H512.5435V560.645H508.2255V564.725H513.0535V566.0H506.67850000000004V554.134H513.0535V555.409Z M533.3515 554.151V555.409H530.1215V566.0H528.5745000000001V555.409H525.3275V554.151Z M545.3365 560.067Q545.3365 558.333 546.127 556.9475Q546.9175 555.562 548.2775 554.7885Q549.6375 554.015 551.2865 554.015Q552.9525 554.015 554.3125 554.7885Q555.6725 555.562 556.4545 556.9390000000001Q557.2365 558.316 557.2365 560.067Q557.2365 561.818 556.4545 563.1949999999999Q555.6725 564.572 554.3125 565.3455Q552.9525 566.119 551.2865 566.119Q549.6375 566.119 548.2775 565.3455Q546.9175 564.572 546.127 563.1865Q545.3365 561.801 545.3365 560.067ZM555.6555 560.067Q555.6555 558.639 555.086 557.5765Q554.5165 556.514 553.5305 555.9359999999999Q552.5445 555.358 551.2865 555.358Q550.0285 555.358 549.0425 555.9359999999999Q548.0565 556.514 547.4870000000001 557.5765Q546.9175 558.639 546.9175 560.067Q546.9175 561.478 547.4870000000001 562.549Q548.0565 563.62 549.051 564.198Q550.0455000000001 564.776 551.2865 564.776Q552.5275 564.776 553.5219999999999 564.198Q554.5165 563.62 555.086 562.549Q555.6555 561.478 555.6555 560.067Z M569.5955000000001 562.838H571.2445000000001Q571.3295 563.671 571.933 564.2405Q572.5365 564.81 573.6925000000001 564.81Q574.7975000000001 564.81 575.4350000000002 564.2574999999999Q576.0725000000001 563.705 576.0725000000001 562.838Q576.0725000000001 562.158 575.6985000000001 561.733Q575.3245000000001 561.308 574.7635 561.087Q574.2025000000001 560.866 573.2505000000001 560.611Q572.0775000000001 560.305 571.3720000000001 559.999Q570.6665 559.693 570.1650000000001 559.0385Q569.6635000000001 558.384 569.6635000000001 557.279Q569.6635000000001 556.31 570.1565 555.5619999999999Q570.6495000000001 554.814 571.5420000000001 554.406Q572.4345000000001 553.998 573.5905000000001 553.998Q575.2565000000001 553.998 576.3190000000001 554.831Q577.3815000000001 555.664 577.5175 557.041H575.8175000000001Q575.7325000000001 556.361 575.1035 555.8425Q574.4745 555.324 573.4375000000001 555.324Q572.4685000000001 555.324 571.8565000000001 555.8254999999999Q571.2445000000001 556.327 571.2445000000001 557.228Q571.2445000000001 557.874 571.6100000000001 558.282Q571.9755000000001 558.69 572.5110000000001 558.9025Q573.0465 559.115 574.0155000000001 559.387Q575.1885000000001 559.71 575.9025000000001 560.0245Q576.6165000000001 560.339 577.1265000000001 560.9935Q577.6365000000001 561.648 577.6365000000001 562.77Q577.6365000000001 563.637 577.1775 564.402Q576.7185000000001 565.167 575.8175000000001 565.643Q574.9165 566.119 573.6925000000001 566.119Q572.5195000000001 566.119 571.5930000000001 565.7025Q570.6665 565.286 570.1395 564.5464999999999Q569.6125000000001 563.807 569.5955000000001 562.838Z M596.9995000000001 566.0 592.1205000000001 560.594V566.0H590.5735000000001V554.151H592.1205000000001V559.642L597.0165000000001 554.151H598.9715000000001L593.5995000000001 560.084L599.0225000000002 566.0Z M612.9625000000002 554.151V566.0H611.4155000000002V554.151Z M635.5725000000002 566.0H634.0255000000002L627.8035000000002 556.565V566.0H626.2565000000002V554.134H627.8035000000002L634.0255000000002 563.552V554.134H635.5725000000002Z M650.4135000000002 555.409V559.37H654.7315000000002V560.645H650.4135000000002V564.725H655.2415000000002V566.0H648.8665000000002V554.134H655.2415000000002V555.409Z M673.0915000000002 560.084 676.7295000000003 566.0H674.9785000000003L672.1395000000002 561.376L669.4365000000003 566.0H667.7195000000003L671.3405000000002 560.084L667.7025000000002 554.151H669.4365000000003L672.2925000000002 558.792L675.0125000000003 554.151H676.7465000000002Z M696.7555000000002 554.151V555.409H693.5255000000002V566.0H691.9785000000003V555.409H688.7315000000002V554.151Z M708.7575000000003 565.048Q708.7575000000003 564.606 709.0635000000002 564.3Q709.3695000000002 563.994 709.8115000000003 563.994Q710.2365000000002 563.994 710.5340000000002 564.3Q710.8315000000002 564.606 710.8315000000002 565.048Q710.8315000000002 565.49 710.5340000000002 565.796Q710.2365000000002 566.102 709.8115000000003 566.102Q709.3695000000002 566.102 709.0635000000002 565.796Q708.7575000000003 565.49 708.7575000000003 565.048Z M728.8855000000003 553.998Q730.8235000000003 553.998 732.2685000000004 554.933Q733.7135000000003 555.868 734.3765000000003 557.585H732.5235000000002Q732.0305000000003 556.514 731.1040000000003 555.9359999999999Q730.1775000000002 555.358 728.8855000000003 555.358Q727.6445000000002 555.358 726.6585000000002 555.9359999999999Q725.6725000000002 556.514 725.1115000000002 557.5765Q724.5505000000003 558.639 724.5505000000003 560.067Q724.5505000000003 561.478 725.1115000000002 562.5405Q725.6725000000002 563.603 726.6585000000002 564.181Q727.6445000000002 564.759 728.8855000000003 564.759Q730.1775000000002 564.759 731.1040000000003 564.1895Q732.0305000000003 563.62 732.5235000000002 562.549H734.3765000000003Q733.7135000000003 564.249 732.2685000000004 565.1755Q730.8235000000003 566.102 728.8855000000003 566.102Q727.2365000000003 566.102 725.8850000000002 565.3285Q724.5335000000002 564.555 723.7515000000003 563.178Q722.9695000000003 561.801 722.9695000000003 560.067Q722.9695000000003 558.333 723.7515000000003 556.9475Q724.5335000000002 555.562 725.8850000000002 554.78Q727.2365000000003 553.998 728.8855000000003 553.998Z M746.7525000000003 560.067Q746.7525000000003 558.333 747.5430000000003 556.9475Q748.3335000000003 555.562 749.6935000000003 554.7885Q751.0535000000003 554.015 752.7025000000003 554.015Q754.3685000000003 554.015 755.7285000000003 554.7885Q757.0885000000003 555.562 757.8705000000002 556.9390000000001Q758.6525000000003 558.316 758.6525000000003 560.067Q758.6525000000003 561.818 757.8705000000002 563.1949999999999Q757.0885000000003 564.572 755.7285000000003 565.3455Q754.3685000000003 566.119 752.7025000000003 566.119Q751.0535000000003 566.119 749.6935000000003 565.3455Q748.3335000000003 564.572 747.5430000000003 563.1865Q746.7525000000003 561.801 746.7525000000003 560.067ZM757.0715000000002 560.067Q757.0715000000002 558.639 756.5020000000003 557.5765Q755.9325000000003 556.514 754.9465000000002 555.9359999999999Q753.9605000000003 555.358 752.7025000000003 555.358Q751.4445000000003 555.358 750.4585000000003 555.9359999999999Q749.4725000000003 556.514 748.9030000000002 557.5765Q748.3335000000003 558.639 748.3335000000003 560.067Q748.3335000000003 561.478 748.9030000000002 562.549Q749.4725000000003 563.62 750.4670000000003 564.198Q751.4615000000003 564.776 752.7025000000003 564.776Q753.9435000000003 564.776 754.9380000000003 564.198Q755.9325000000003 563.62 756.5020000000003 562.549Q757.0715000000002 561.478 757.0715000000002 560.067Z M783.3705000000003 554.236V566.0H781.8235000000003V557.228L777.9135000000003 566.0H776.8255000000004L772.8985000000004 557.211V566.0H771.3515000000003V554.236H773.0175000000004L777.3695000000004 563.96L781.7215000000003 554.236Z" fill="#5aaddc" opacity="0.85"/>
</svg>